<?xml version="1.0" encoding="utf-8"?>
<!-- Generator: Adobe Illustrator 18.0.0, SVG Export Plug-In . SVG Version: 6.00 Build 0)  -->
<!DOCTYPE svg PUBLIC "-//W3C//DTD SVG 1.1//EN" "http://www.w3.org/Graphics/SVG/1.1/DTD/svg11.dtd">
<svg version="1.1" id="Layer_1" xmlns="http://www.w3.org/2000/svg" xmlns:xlink="http://www.w3.org/1999/xlink" x="0px" y="0px"
	 viewBox="0 0 612 792" enable-background="new 0 0 612 792" xml:space="preserve">
<polygon fill="none" stroke="#000000" points="6.2,15.5 6.2,23.7 19.1,23.7 19.1,15.5 17.6,15.5 17.6,22.3 7.6,22.3 7.6,15.5 "/>
<polygon fill="none" stroke="#000000" points="8.6,19.6 8.6,21 16.3,21 16.3,19.3 8.6,19.3 "/>
<polygon fill="none" stroke="#000000" points="8.9,16.4 8.9,18.2 16.3,18.8 16.3,17.2 "/>
<polygon fill="none" stroke="#000000" points="9.6,13 9.1,14.6 16.6,16.8 16.9,14.9 "/>
<polygon fill="none" stroke="#000000" points="11.4,9.2 10.5,10.8 17.2,14.6 17.9,13 "/>
<polygon fill="none" stroke="#000000" points="13.9,6.5 18.3,12.8 19.7,11.9 15.3,5.7 "/>
<polygon fill="none" stroke="#000000" points="18.6,4.3 20,11.9 21.6,11.7 20.3,4 "/>
</svg>
